<svg xmlns="http://www.w3.org/2000/svg" xmlns:xlink="http://www.w3.org/1999/xlink" version="1.1" x="0px" y="0px" viewBox="0 0 100 125" enable-background="new 0 0 100 100" xml:space="preserve"><path d="M14.5,61.9c0.8,2.7,2.3,8,5.5,11.1c2.5,9.3,9.7,19.9,21.3,24c2.8,1,5.7,1.5,8.6,1.5c3,0,5.9-0.5,8.7-1.5  C70.3,92.7,77.5,82.1,80,72.9c3.3-3.1,4.8-8.4,5.5-11.1c1.2-4.4,2.5-10.7-0.8-15.1c-0.1-0.2-0.3-0.3-0.4-0.5  c1.6-7.3,4.4-28.2-11.5-37.8c0,0,3.4-2.8,3.2-6.8c0,0-18.9,2.1-28,0.3c-9.1-1.9-18.8,5.2-20.4,12c-0.1,0.1-0.1,0.1-0.2,0.2  c-1.7,0.1-16,1.7-12.1,27.7c0.1,1.4,0.3,2.9,0.6,4.4c-0.1,0.2-0.3,0.3-0.4,0.5C12,51.2,13.3,57.5,14.5,61.9z M29.8,79.3  c1.9,1.5,4.6,2.6,8.5,2.6c6.1,0,10.1-2.4,11.7-4.7c1.7,2.3,5.6,4.7,11.7,4.7c3.8,0,6.5-1.1,8.3-2.5c-3.1,4.9-7.7,9.2-13.6,11.3  c-2.1,0.8-4.3,1.1-6.5,1.1c-2.2,0-4.4-0.4-6.5-1.1C37.5,88.6,32.9,84.2,29.8,79.3z M22.9,49.6c0.1,0,0.3,0,0.4,0v0  c0,0,2-26.8,23.7-17.6c11.3,4.8,19.8,4.6,25.3,3.3c6.9,4.8,4.9,12.7,4.5,14c0,0.1,0,0.1-0.1,0.2c0.1,0,0.3,0,0.4,0  c2.2,0,4.5,1.7,2.1,10.4c-1.9,6.8-3.7,8.7-5,8.8c-0.3,1.9-0.9,4-1.8,6.1c-0.8,0.4-1.9,0.7-3.4,0.7c-3.8,0-6.9-4.9-12.3-4.9  c-1.5,0-3.6,0.2-6.7,2.4c-3.1-2.2-5.2-2.4-6.7-2.4c-5.4,0-8.4,4.9-12.3,4.9c-1.5,0-2.6-0.3-3.4-0.7c-0.9-2.1-1.5-4.1-1.8-6.1  c-1.4-0.1-3.1-2-5-8.8C18.3,51.4,20.6,49.6,22.9,49.6z"/><text x="0" y="115" fill="#000000" font-size="5px" font-weight="bold" font-family="'Helvetica Neue', Helvetica, Arial-Unicode, Arial, Sans-serif">Created by Gregor Cresnar</text><text x="0" y="120" fill="#000000" font-size="5px" font-weight="bold" font-family="'Helvetica Neue', Helvetica, Arial-Unicode, Arial, Sans-serif">from the Noun Project</text></svg>