<svg xmlns="http://www.w3.org/2000/svg" xmlns:xlink="http://www.w3.org/1999/xlink" version="1.1" x="0px" y="0px" viewBox="0 0 100 125" enable-background="new 0 0 100 100" xml:space="preserve"><path d="M76.683,53.711c-2.679,1.418-3.256,1.785-5.961,2.94c4.14,2.963-3.257,9.727-0.204,11.502  c1.092-2.527,0.833-3.445,3.07-5.636c1.749-2.282-3.088-5.757,1.71-6.313c0.888,6.661-2.273,9.276-3.585,13.74  c-1.187-0.008-0.76-1.63-2.39-1.194c-0.514,3.898,1.232,5.539,1.194,8.962l-3.238,7.051c3.179-3.655,4.747-7.396,5.511-10.032  C71.875,67.886,78.797,61.559,76.683,53.711z"/><path d="M53.701,68.351c-0.064-0.021-0.127-0.04-0.188-0.056c-0.062-0.017-0.122-0.029-0.18-0.04  c-0.06-0.012-0.117-0.02-0.174-0.024c-0.057-0.006-0.111-0.01-0.166-0.011c-0.31-0.003-0.582,0.07-0.823,0.201  c-0.239,0.129-0.446,0.316-0.628,0.536c-0.18,0.221-0.334,0.477-0.465,0.746s-0.24,0.552-0.334,0.827  c0.098-0.015,0.213-0.051,0.338-0.095s0.262-0.097,0.401-0.146c0.14-0.05,0.284-0.098,0.425-0.133  c0.142-0.034,0.279-0.055,0.408-0.053c0.07,0.002,0.139,0.012,0.201,0.029c0.064,0.019,0.123,0.045,0.178,0.084  c0.055,0.038,0.104,0.087,0.146,0.149c0.043,0.062,0.08,0.137,0.109,0.227c-0.025,0.465-0.111,0.841-0.243,1.142  s-0.309,0.525-0.515,0.691c-0.204,0.165-0.439,0.271-0.686,0.332c-0.245,0.063-0.504,0.08-0.759,0.069  c-0.155-0.007-0.31-0.024-0.459-0.048c-0.149-0.024-0.294-0.057-0.432-0.091c-0.137-0.034-0.265-0.072-0.382-0.111  c-0.117-0.038-0.223-0.077-0.314-0.112c-0.648-0.25-1.237-0.728-1.805-1.303c-0.563-0.572-1.106-1.238-1.664-1.873  c-0.554-0.63-1.123-1.229-1.742-1.671c-0.614-0.438-1.276-0.719-2.02-0.724c-0.195-0.001-0.396,0.017-0.604,0.056  c-0.207,0.04-0.419,0.1-0.639,0.185c-0.219,0.083-0.444,0.19-0.676,0.323c-0.232,0.132-0.471,0.29-0.717,0.474  c-0.211-0.194-0.417-0.36-0.618-0.5c-0.2-0.14-0.396-0.251-0.586-0.339c-0.191-0.087-0.377-0.151-0.559-0.193  s-0.36-0.063-0.534-0.063c-0.369-0.002-0.723,0.082-1.063,0.23c-0.339,0.147-0.667,0.359-0.986,0.611  c-0.317,0.252-0.626,0.546-0.931,0.859c-0.302,0.312-0.6,0.645-0.896,0.976c-0.294,0.329-0.586,0.658-0.88,0.964  c-0.292,0.306-0.585,0.589-0.883,0.828c-0.296,0.238-0.597,0.435-0.904,0.566c-0.306,0.132-0.619,0.201-0.941,0.187  c-0.069-0.002-0.138-0.009-0.208-0.02s-0.14-0.025-0.211-0.044c-0.07-0.021-0.142-0.042-0.213-0.07  c-0.072-0.026-0.144-0.06-0.216-0.096c-0.13-0.065-0.252-0.148-0.359-0.258c-0.107-0.108-0.199-0.244-0.27-0.412  c-0.071-0.168-0.12-0.368-0.14-0.61c-0.02-0.241-0.012-0.523,0.032-0.855c0.032-0.04,0.065-0.075,0.099-0.104  c0.034-0.029,0.068-0.052,0.103-0.068s0.071-0.028,0.107-0.037c0.036-0.007,0.073-0.009,0.11-0.009  c0.045,0.001,0.09,0.008,0.135,0.019s0.091,0.025,0.136,0.043c0.045,0.018,0.09,0.037,0.135,0.06  c0.045,0.021,0.089,0.045,0.132,0.067c0.044,0.022,0.087,0.046,0.128,0.067c0.042,0.021,0.083,0.042,0.122,0.06  c0.04,0.017,0.077,0.031,0.113,0.042c0.037,0.01,0.071,0.017,0.104,0.017c0.02,0.002,0.04,0,0.058-0.004s0.037-0.011,0.053-0.019  c0.017-0.01,0.034-0.021,0.049-0.036s0.029-0.032,0.042-0.054c-0.066-0.285-0.157-0.535-0.265-0.747  c-0.108-0.214-0.233-0.39-0.37-0.532c-0.137-0.142-0.284-0.247-0.437-0.318s-0.31-0.107-0.467-0.11  c-0.178-0.002-0.354,0.039-0.52,0.123c-0.166,0.083-0.323,0.209-0.461,0.377c-0.139,0.168-0.259,0.378-0.353,0.629  c-0.094,0.25-0.162,0.541-0.196,0.875c-0.081,0.813,0.004,1.511,0.22,2.102c0.216,0.594,0.566,1.083,1.012,1.478  c0.45,0.396,1,0.696,1.615,0.91c0.621,0.216,1.309,0.342,2.026,0.388c0.797,0.05,1.631,0,2.452-0.142  c0.83-0.143,1.645-0.378,2.39-0.695c0.752-0.321,1.431-0.725,1.978-1.2c0.552-0.478,0.967-1.026,1.188-1.632  c0.186,0.634,0.565,1.229,1.088,1.772c0.447,0.463,1.006,0.887,1.633,1.265c-1.513,1.108-7.413,1.309-7.413,1.309  s1.933,0.025,3.062,0.174c3.538,0.465,7.097,0.313,10.655,0.298c0.025,0,0.048-0.006,0.072-0.007  c0.367,0.005,0.732-0.001,1.089-0.032c0.552-0.048,1.085-0.142,1.589-0.284c0.508-0.142,0.984-0.336,1.418-0.582  c0.436-0.248,0.827-0.551,1.16-0.911c0.264-0.285,0.525-0.749,0.738-1.298s0.377-1.183,0.439-1.805  c0.063-0.622,0.027-1.231-0.158-1.729C54.56,68.913,54.227,68.528,53.701,68.351z"/><path d="M43.79,60.549l0.598-7.767c0.039-0.227,0.104-0.427,0.187-0.611c0.529-1.478,2.146-2.192,3.696-2.782  c-0.025,1.065,0.645,2.15,2.018,2.15c1.588,0,2.233-1.445,1.953-2.638c3.303,0.603,7.68,2.686,7.68,2.686  c-3.182-5.035-16.093-10.215-18.654-5.798"/><path d="M40.554,88.771c-2.017,0-5.228-0.523-6.646-1.345s-4.854-8.289-4.854-8.289c2.166,6.646,2.58,8.037,4.705,9.691  c5.555,4.326,13.891,0.539,14.936,0c1.046-0.539,2.688-5.15,2.688-5.15s-0.821,1.433-2.314,3.524  C47.574,89.294,42.57,88.771,40.554,88.771z"/><path d="M42.82,77.006h-8.215C43.268,79.992,42.82,77.006,42.82,77.006z"/><path d="M43.908,67.163c1.958,1.833,3.653-2.383,1.781-3.649c-0.083,0.049-0.167,0.097-0.188,0.221  C46.38,65.444,45.795,67.265,43.908,67.163z"/><path d="M33.152,64.179c-1.527,0.763-0.145,3.303,1.453,2.199c-1.54,0.061-2.018-1.035-1.3-2.064  C33.289,64.238,33.22,64.209,33.152,64.179z"/><path d="M38.609,65.435c1.508,0.408,3.804,1.672,5.31,0.509C44.043,64.265,39.203,63.23,38.609,65.435z"/><path d="M37.442,65.501c-0.377-1.4-3.452-0.744-3.373,0.322C35.025,66.562,36.484,65.759,37.442,65.501z"/><path d="M78.913,16.066C72.501,8.715,65.074,4.715,46.652,3.52c-8.7-0.564-23.757,6.096-25.69,13.144  c-1.292,4.708,1.153,11.249,1.396,16.579l1.591,31.814c1.266-4.123-0.185-13.854,4.354-15.556c-0.235,1.176,0.418,2.562,1.971,2.562  c1.467,0,2.13-1.238,2-2.368c0.557,0.184,1.149,0.418,1.793,0.725c1.314,1.273,0.449,3.685-0.55,5.538  c4.352-1.571,3.78-9.999,1.783-10.616c-5.121-1.583-8.326,3.367-10.156,3.585c7.651-16.237,41.981-6.903,45.406,6.571  c2.252-0.734,3.507-1.78,5.974-2.986C78.278,39.874,86.731,25.027,78.913,16.066z"/><text x="0" y="115" fill="#000000" font-size="5px" font-weight="bold" font-family="'Helvetica Neue', Helvetica, Arial-Unicode, Arial, Sans-serif">Created by Awais Rashid Khan</text><text x="0" y="120" fill="#000000" font-size="5px" font-weight="bold" font-family="'Helvetica Neue', Helvetica, Arial-Unicode, Arial, Sans-serif">from the Noun Project</text></svg>